<svg xmlns="http://www.w3.org/2000/svg" width="16" height="16" viewBox="0 0 16 16" fill="none">
    <path d="M8 5C6.583 5 5.5 3.917 5.5 2.5C5.5 1.083 6.583 0 8 0C9.417 0 10.5 1.083 10.5 2.5C10.5 3.917 9.417 5 8 5Z" fill="#495057"/>
    <path d="M2.5 5C1.675 5 1 4.325 1 3.5C1 2.675 1.675 2 2.5 2C3.325 2 4 2.675 4 3.5C4 4.325 3.325 5 2.5 5Z" fill="#495057"/>
    <path d="M2.95501 12.77C2.57201 12.302 2.42101 11.698 2.53801 11.108L3.21701 7.715C3.32701 7.164 3.55901 6.667 3.86601 6.227C3.64201 6.094 3.39401 5.999 3.11701 5.999H1.88301C1.12801 5.999 0.488015 6.564 0.395015 7.313L0.0040147 10.438C-0.0139853 10.58 0.0300147 10.723 0.125015 10.831C0.220015 10.938 0.356015 11 0.500015 11H1.04001L1.25201 13.542C1.27301 13.801 1.49001 14 1.75001 14H3.25001C3.51001 14 3.72701 13.801 3.74801 13.542L3.76401 13.353C3.45401 13.23 3.17301 13.035 2.95501 12.77Z" fill="#495057"/>
    <path d="M13.5 5C14.325 5 15 4.325 15 3.5C15 2.675 14.325 2 13.5 2C12.675 2 12 2.675 12 3.5C12 4.325 12.675 5 13.5 5Z" fill="#495057"/>
    <path d="M13.045 12.77C13.428 12.302 13.579 11.698 13.462 11.108L12.783 7.715C12.673 7.164 12.441 6.667 12.134 6.227C12.358 6.094 12.606 5.999 12.883 5.999H14.117C14.872 5.999 15.512 6.564 15.605 7.313L15.996 10.437C16.014 10.579 15.97 10.722 15.875 10.83C15.78 10.937 15.644 10.999 15.5 10.999H14.96L14.748 13.541C14.727 13.8 14.51 13.999 14.25 13.999H12.75C12.49 13.999 12.273 13.8 12.252 13.541L12.236 13.352C12.546 13.229 12.827 13.035 13.045 12.77Z" fill="#495057"/>
    <path d="M11.312 8.01C11.079 6.845 10.048 6 8.86003 6H7.13903C5.95103 6 4.92003 6.845 4.68703 8.01L4.00903 11.402C3.98003 11.549 4.01803 11.701 4.11303 11.817C4.20803 11.933 4.35003 12 4.50003 12H5.55903L6.00403 15.562C6.03503 15.812 6.24803 16 6.50003 16H9.50003C9.75203 16 9.96503 15.812 9.99603 15.562L10.441 12H11.5C11.65 12 11.792 11.933 11.887 11.817C11.982 11.701 12.02 11.549 11.991 11.402L11.312 8.01Z" fill="#495057"/>
</svg>
