<svg xmlns="http://www.w3.org/2000/svg" width="16" height="16" viewBox="0 0 16 16" fill="none">
    <path d="M16 1C16 0.734786 15.8946 0.480432 15.7071 0.292895C15.5196 0.105359 15.2652 2.14315e-06 15 2.14315e-06H10.45C9.8588 -0.00164743 9.27316 0.113994 8.72696 0.340231C8.18077 0.566467 7.68488 0.898805 7.268 1.318L3.293 5.293C3.10553 5.48053 3.00021 5.73484 3.00021 6C3.00021 6.26517 3.10553 6.51947 3.293 6.707C3.74121 7.15574 4.33798 7.42517 4.97099 7.46459C5.604 7.504 6.22959 7.31068 6.73 6.921L9.417 4.831L13.61 9.024C13.727 9.14103 13.8186 9.28101 13.879 9.43513C13.9393 9.58926 13.9671 9.7542 13.9606 9.91959C13.9541 10.085 13.9135 10.2472 13.8413 10.3962C13.7691 10.5451 13.6668 10.6775 13.541 10.785L12.975 11.268L11.354 9.646C11.3075 9.59951 11.2523 9.56264 11.1916 9.53748C11.1308 9.51232 11.0657 9.49937 11 9.49937C10.9343 9.49937 10.8692 9.51232 10.8084 9.53748C10.7477 9.56264 10.6925 9.59951 10.646 9.646C10.5995 9.69249 10.5626 9.74768 10.5375 9.80842C10.5123 9.86916 10.4994 9.93426 10.4994 10C10.4994 10.0657 10.5123 10.1308 10.5375 10.1916C10.5626 10.2523 10.5995 10.3075 10.646 10.354L12.212 11.919L11.357 12.65L9.857 11.15C9.76311 11.0561 9.63577 11.0034 9.503 11.0034C9.37022 11.0034 9.24288 11.0561 9.149 11.15C9.05511 11.2439 9.00237 11.3712 9.00237 11.504C9.00237 11.6368 9.05511 11.7641 9.149 11.858L10.594 13.3L10.456 13.418C10.2086 13.6301 9.91287 13.7782 9.59481 13.8492C9.27674 13.9202 8.9461 13.9119 8.632 13.825C8.59486 13.3572 8.39287 12.9178 8.062 12.585L4.477 9C4.29131 8.81425 4.07085 8.66689 3.82821 8.56633C3.58557 8.46578 3.3255 8.414 3.06285 8.41395C2.8002 8.4139 2.54011 8.46559 2.29744 8.56606C2.05476 8.66653 1.83425 8.81381 1.6485 8.9995C1.46274 9.18519 1.31538 9.40565 1.21483 9.64829C1.11427 9.89093 1.06249 10.151 1.06245 10.4136C1.06235 10.9441 1.27298 11.4529 1.648 11.828L5.234 15.414C5.56405 15.7431 5.99868 15.9466 6.46281 15.9893C6.92694 16.032 7.39141 15.9113 7.776 15.648C8.21633 15.8122 8.68206 15.8978 9.152 15.901C10.1091 15.9036 11.0351 15.561 11.76 14.936L14.84 12.306C15.1865 12.0278 15.4694 11.6786 15.6695 11.2818C15.8696 10.8851 15.9823 10.45 16 10.006V1Z" fill="#495057"/>
    <path d="M2 7V2H5C5.26522 2 5.51957 1.89464 5.70711 1.70711C5.89464 1.51957 6 1.26522 6 1C6 0.734784 5.89464 0.48043 5.70711 0.292893C5.51957 0.105357 5.26522 0 5 0L1 0C0.734784 0 0.48043 0.105357 0.292893 0.292893C0.105357 0.48043 0 0.734784 0 1L0 7C0 7.26522 0.105357 7.51957 0.292893 7.70711C0.48043 7.89464 0.734784 8 1 8C1.26522 8 1.51957 7.89464 1.70711 7.70711C1.89464 7.51957 2 7.26522 2 7Z" fill="#495057"/>
</svg>
