<svg xmlns="http://www.w3.org/2000/svg" width="16" height="16" viewBox="0 0 16 16" fill="none">
    <path d="M15.2 2.01795L5.2 0.0179458C5.05469 -0.0117149 4.90461 -0.00868475 4.76062 0.0268168C4.61662 0.0623184 4.48233 0.129402 4.36747 0.22321C4.2526 0.317017 4.16004 0.435198 4.09648 0.569193C4.03293 0.703188 3.99997 0.849642 4 0.997946V5.99795H1C0.734784 5.99795 0.48043 6.1033 0.292893 6.29084C0.105357 6.47838 0 6.73273 0 6.99795L0 14.9979C0 15.2632 0.105357 15.5175 0.292893 15.7051C0.48043 15.8926 0.734784 15.9979 1 15.9979H15C15.2652 15.9979 15.5196 15.8926 15.7071 15.7051C15.8946 15.5175 16 15.2632 16 14.9979V2.99795C16 2.76742 15.9204 2.54395 15.7747 2.36537C15.6289 2.18678 15.4259 2.06405 15.2 2.01795ZM6 13.9979H2V11.9979H6V13.9979ZM6 9.99795H2V7.99795H6V9.99795ZM14 13.9979H8V6.99795C8 6.73273 7.89464 6.47838 7.70711 6.29084C7.51957 6.1033 7.26522 5.99795 7 5.99795H6V2.21795L14 3.81795V13.9979Z" fill="#495057"/>
    <path d="M12 5.99774H10V11.9977H12V5.99774Z" fill="#495057"/>
</svg>
