<?xml version="1.0" encoding="UTF-8"?>
<svg width="18px" height="19px" viewBox="0 0 18 19" version="1.1" xmlns="http://www.w3.org/2000/svg" xmlns:xlink="http://www.w3.org/1999/xlink">
    <title>download-lock</title>
    <g id="Symbols" stroke="none" stroke-width="1" fill="none" fill-rule="evenodd">
        <g id="locked-download-all" transform="translate(-7.000000, -7.000000)" fill="#495057" fill-rule="nonzero">
            <g id="download-lock" transform="translate(7.000000, 7.000000)">
                <path d="M0,17 L9,17 L9,15 L0,15 M14,6 L10,6 L10,0 L4,0 L4,6 L0,6 L7,13 M17,13 C17.535574,13.0383992 17.9616008,13.464426 18,14 L18,18 C17.9616008,18.535574 17.535574,18.9616008 17,19 L12,19 C11.464426,18.9616008 11.0383992,18.535574 11,18 L11,14 C11.0383992,13.464426 11.464426,13.0383992 12,13 L12,11.5 C12,10.1192881 13.1192881,9 14.5,9 C15.8807119,9 17,10.1192881 17,11.5 L17,13 M16,13 L16,11.5 C16,10.6715729 15.3284271,10 14.5,10 C13.6715729,10 13,10.6715729 13,11.5 L13,13 L16,13" id="Shape"></path>
            </g>
        </g>
    </g>
</svg>