<?xml version="1.0" encoding="UTF-8"?>
<svg width="15px" height="19px" viewBox="0 0 15 19" version="1.1" xmlns="http://www.w3.org/2000/svg" xmlns:xlink="http://www.w3.org/1999/xlink">
    <title>pdf</title>
    <g id="WIP-Business-Search" stroke="none" stroke-width="1" fill="none" fill-rule="evenodd">
        <g id="icons" transform="translate(-75.000000, -84.000000)" fill="#1669BB" fill-rule="nonzero">
            <g id="pdf" transform="translate(75.000000, 84.000000)">
                <path d="M13.8156738,16.9938 L1.8882,16.9938 L1.8882,1.8882 L8.49689,1.8882 L8.49689,6.6087 L13.2174,6.6087 L13.2174,18.882 C14.4058,18.882 15,18.2526 15,16.9938 C15,16.9938 15,13.2174 15,5.6646 L9.44099,0 L1.8882,0 C0.845375,0 0,0.845375 0,1.8882 L0,16.9938 C0,18.0366 0.845375,18.882 1.8882,18.882 L13.2174,18.882 L13.8156738,16.9938 Z M6.98269,6.01407 C8.25433,5.97774 7.41868,8.84802 7.41868,8.84802 C7.77292,10.2014 9.25348,11.1733 9.25348,11.1733 C9.64878,11.0547 11.3736,10.6969 11.5251,11.5066 C11.5477,11.6271 10.7041,12.3129 10.4734,12.3995 C9.70604,12.6876 8.75391,12.1634 8.75391,12.1634 C6.98269,12.2905 5.65655,12.7629 5.65655,12.7629 C4.63015,14.6794 3.43117,15.5151 2.94068,14.7067 C2.33211,13.6984 4.8754,12.3995 4.8754,12.3995 C6.19245,10.265 6.39228,9.0206 6.41045,8.98427 C6.19245,8.28486 5.71105,6.0504 6.98269,6.01407 Z" id="Shape"></path>
            </g>
        </g>
    </g>
</svg>