<?xml version="1.0" encoding="UTF-8"?>
<svg width="18px" height="20px" viewBox="0 0 18 20" version="1.1" xmlns="http://www.w3.org/2000/svg" xmlns:xlink="http://www.w3.org/1999/xlink">
    <title>pdf-lock 2</title>
    <g id="WIP-Business-Search" stroke="none" stroke-width="1" fill="none" fill-rule="evenodd">
        <g id="01e-Search-Entity-Page---Expanded" transform="translate(-109.000000, -880.000000)" fill="#495057" fill-rule="nonzero">
            <g id="Shape" transform="translate(109.000000, 880.000000)">
                <path d="M5.6646,16.9938 L1.8882,16.9938 L1.8882,1.8882 L8.49689,1.8882 L8.49689,6.6087 L13.2174,6.6087 L13.2174,8.25 L15.2,8.75 L15,5.6646 L9.44099,0 L1.8882,0 C0.845375,0 0,0.845375 0,1.8882 L0,16.9938 C0,18.0366 0.845375,18.882 1.8882,18.882 L8.75391,18.882 L7.06274,16.9938 L5.6646,16.9938 Z M6.98269,6.01407 C8.25433,5.97774 7.41868,8.84802 7.41868,8.84802 C7.77292,10.2014 9.25348,11.1733 9.25348,11.1733 C9.64878,11.0547 11.3736,10.6969 11.5251,11.5066 C11.5477,11.6271 10.7041,12.3129 10.4734,12.3995 C9.70604,12.6876 8.75391,12.1634 8.75391,12.1634 C6.98269,12.2905 5.65655,12.7629 5.65655,12.7629 C4.63015,14.6794 3.43117,15.5151 2.94068,14.7067 C2.33211,13.6984 4.8754,12.3995 4.8754,12.3995 C6.19245,10.265 6.39228,9.0206 6.41045,8.98427 C6.19245,8.28486 5.71105,6.0504 6.98269,6.01407 Z"></path>
                <path d="M18,15.77 L18,18.92 C18,19.46 17.475,20 16.8625,20 L12.05,20 C11.525,20 11,19.46 11,18.83 L11,15.68 C11,15.14 11.525,14.6 12.05,14.6 L12.05,13.25 C12.05,11.99 13.275,11 14.5,11 C15.725,11 16.95,11.99 16.95,13.25 L16.95,14.6 C17.475,14.6 18,15.14 18,15.77 Z M15.8125,13.25 C15.8125,12.53 15.2,12.08 14.5,12.08 C13.8,12.08 13.1875,12.53 13.1875,13.25 L13.1875,14.6 L15.8125,14.6 L15.8125,13.25 Z"></path>
            </g>
        </g>
    </g>
</svg>